<svg width="49" height="35" viewBox="0 0 49 35" fill="none" xmlns="http://www.w3.org/2000/svg">
<path d="M21.6757 22.9334C21.8052 29.0706 16.8238 34.0651 10.7114 33.9785C4.72082 33.8925 -0.0397068 28.7735 0.0606825 22.783C0.324115 7.19626 13.336 1.616 17.7427 0.170805C18.525 -0.0857469 19.3653 0.348578 19.6061 1.1361L19.6125 1.15579C19.8276 1.85668 19.4907 2.60702 18.8273 2.91794C16.4823 4.01781 11.234 7.00079 8.8389 12.5491C9.61544 12.4 10.4243 12.3349 11.2497 12.3642C16.9474 12.5613 21.5557 17.2327 21.677 22.9321L21.6757 22.9334Z" fill="#555555"/>
<path d="M48.3803 23.0772C48.5097 29.2144 43.5283 34.2089 37.4159 34.1223C31.4254 34.0363 26.6648 28.9186 26.7652 22.9281C27.0287 7.34006 40.0405 1.7598 44.4459 0.314596C45.2283 0.0580449 46.0685 0.492369 46.3093 1.27989L46.3157 1.29958C46.5308 2.00047 46.1939 2.75081 45.5305 3.06173C43.1856 4.16161 37.9372 7.14458 35.5421 12.6929C36.3187 12.5438 37.1275 12.4787 37.9529 12.508C43.6506 12.7051 48.2589 17.3765 48.3803 23.0759L48.3803 23.0772Z" fill="#555555"/>
</svg>
