<svg width="49" height="34" viewBox="0 0 49 34" fill="none" xmlns="http://www.w3.org/2000/svg">
<path d="M26.7088 11.1043C26.5464 4.96796 31.5008 -0.0532972 37.6136 0.000427138C43.6045 0.0541515 48.3925 5.14617 48.3244 11.1371C48.1448 26.725 35.1632 32.3752 30.7657 33.8441C29.9847 34.1049 29.1422 33.6751 28.8971 32.8889L28.8906 32.8692C28.6717 32.1695 29.0046 31.4174 29.6663 31.1029C32.0053 29.9904 37.2375 26.9792 39.6027 21.4181C38.827 21.5714 38.0185 21.6409 37.1929 21.616C31.4942 21.4495 26.8608 16.803 26.7088 11.1043Z" fill="#555555"/>
<path d="M0.00388563 11.1046C-0.158598 4.96821 4.79584 -0.0530531 10.9086 0.000671279C16.8995 0.0543956 21.6876 5.14641 21.6194 11.1373C21.4399 26.7253 8.45826 32.3755 4.06073 33.8444C3.27976 34.1051 2.4372 33.6754 2.19217 32.8891L2.18562 32.8695C1.96679 32.1698 2.29962 31.4176 2.96135 31.1031C5.30032 29.9906 10.5325 26.9795 12.8977 21.4183C12.122 21.5717 11.3135 21.6411 10.488 21.6162C4.78928 21.4498 0.155886 16.8033 0.00388563 11.1046Z" fill="#555555"/>
</svg>
